#!OML:ASF E:\VariousWalksJay\Project 1\Capture day 1\Session 1\Actor2.ASF
:FULLY-SPECIFIED
:DEGREES
1379
root -2.99329 17.3823 -16.9874 172.492 -57.7904 -175.177
lowerback -0.158108 -1.28795 10.6099
upperback 6.62516 -2.62387 2.14405
thorax 6.77953 -0.903903 -3.82504
lowerneck -12.5627 2.80525 3.22164
upperneck 23.1143 3.35655 -2.84404
head 9.46275 1.32966 -1.16113
rclavicle 3.08116e-014 8.74653e-015
rhumerus -14.723 11.4126 -77.7997
rradius 32.5663
rwrist -1.19899
rhand -16.3321 -7.50873
rfingers 7.12502
rthumb 9.8798 -37.2569
lclavicle 3.08116e-014 8.74653e-015
lhumerus -15.0361 -17.7443 88.283
lradius 17.3109
lwrist 3.93327
lhand -7.1723 -9.74166
lfingers 7.12502
lthumb 18.7051 19.379
rfemur -9.65946 -7.15733 23.5779
rtibia 38.9273
rfoot -27.7011 -17.7749
rtoes -1.44801
lfemur -19.4168 11.0752 -14.9934
ltibia 44.3402
lfoot -18.7948 10.1836
ltoes -11.5119
1380
root -2.99596 17.3754 -16.9924 172.159 -58.7138 -174.818
lowerback -0.244319 -1.1685 10.6786
upperback 6.56761 -2.46088 2.10964
thorax 6.7871 -0.815054 -3.89302
lowerneck -12.5971 2.93323 3.27245
upperneck 22.9026 3.52329 -2.76043
head 9.40032 1.43086 -1.11814
rclavicle 1.35174e-014 2.22639e-014
rhumerus -15.1279 11.4563 -77.8012
rradius 32.6712
rwrist -1.21999
rhand -16.3446 -7.54279
rfingers 7.12502
rthumb 9.86774 -37.2915
lclavicle 1.35174e-014 2.22639e-014
lhumerus -15.7677 -18.3405 88.0067
lradius 17.7884
lwrist 4.60147
lhand -7.01974 -9.79795
lfingers 7.12502
lthumb 18.8518 19.3085
rfemur -9.50249 -7.61116 23.6828
rtibia 38.8429
rfoot -28.0527 -18.033
rtoes -1.03251
lfemur -19.6532 11.4522 -15.1959
ltibia 44.4327
lfoot -19.1027 10.6844
ltoes -11.4708
1381
root -2.99935 17.3678 -16.9967 171.811 -59.6349 -174.427
lowerback -0.333216 -1.04975 10.7536
upperback 6.50064 -2.29787 2.06969
thorax 6.78624 -0.726178 -3.97
lowerneck -12.6063 3.06902 3.35789
upperneck 22.6629 3.69983 -2.7052
head 9.32514 1.5368 -1.09004
rclavicle -2.18663e-014 -7.15625e-015
rhumerus -15.5656 11.4833 -77.8209
rradius 32.7875
rwrist -1.25984
rhand -16.3481 -7.59268
rfingers 7.12502
rthumb 9.86432 -37.3416
lclavicle -2.18663e-014 -7.15625e-015
lhumerus -16.4763 -18.8443 87.6986
lradius 18.2465
lwrist 5.19865
lhand -6.90029 -9.87761
lfingers 7.12502
lthumb 18.9667 19.2177
rfemur -9.36631 -8.07406 23.7936
rtibia 38.7617
rfoot -28.4058 -18.2834
rtoes -0.621332
lfemur -19.9061 11.8191 -15.3997
ltibia 44.5261
lfoot -19.4366 11.1862
ltoes -11.4622
1382
root -3.00359 17.3597 -17.0001 171.449 -60.5443 -174.009
lowerback -0.423938 -0.930564 10.8305
upperback 6.42813 -2.13392 2.02648
thorax 6.78106 -0.637031 -4.0511
lowerneck -12.5944 3.21348 3.47664
upperneck 22.3943 3.88895 -2.68362
head 9.23812 1.64807 -1.07808
rclavicle -5.86415e-014 3.97569e-014
rhumerus -16.0223 11.4825 -77.8528
rradius 32.9028
rwrist -1.3006
rhand -16.3342 -7.63951
rfingers 7.12502
rthumb 9.87775 -37.3878
lclavicle -5.86415e-014 3.97569e-014
lhumerus -17.1477 -19.2461 87.3605
lradius 18.672
lwrist 5.72912
lhand -6.81788 -9.95049
lfingers 7.12502
lthumb 19.046 19.137
rfemur -9.25103 -8.53973 23.9067
rtibia 38.6857
rfoot -28.7543 -18.5246
rtoes -0.219281
lfemur -20.1714 12.199 -15.6059
ltibia 44.6193
lfoot -19.7885 11.6753
ltoes -11.5096
1383
root -3.0083 17.3515 -17.0027 171.073 -61.4452 -173.563
lowerback -0.511996 -0.81238 10.9032
upperback 6.35059 -1.97046 1.9825
thorax 6.76947 -0.548918 -4.13031
lowerneck -12.5699 3.36411 3.61246
upperneck 22.1026 4.08796 -2.68519
head 9.14254 1.76302 -1.07617
rclavicle 4.87022e-014 -1.59028e-014
rhumerus -16.4961 11.4478 -77.8944
rradius 33.0171
rwrist -1.33354
rhand -16.3013 -7.68922
rfingers 7.12502
rthumb 9.90943 -37.436
lclavicle 4.87022e-014 -1.59028e-014
lhumerus -17.7807 -19.5486 86.9951
lradius 19.0636
lwrist 6.20344
lhand -6.78096 -10.023
lfingers 7.12502
lthumb 19.0815 19.0609
rfemur -9.15748 -8.99742 24.0248
rtibia 38.6164
rfoot -29.1006 -18.7657
rtoes 0.188169
lfemur -20.4447 12.5638 -15.81
ltibia 44.7121
lfoot -20.1877 12.1274
ltoes -11.4508
1384
root -3.01371 17.343 -17.004 170.678 -62.3314 -173.092
lowerback -0.590629 -0.695386 10.9743
upperback 6.26974 -1.80712 1.93629
thorax 6.74942 -0.461616 -4.21047
lowerneck -12.5219 3.52102 3.78063
upperneck 21.7832 4.29614 -2.72098
head 9.0356 1.88145 -1.09088
rclavicle -4.39314e-014 4.37326e-014
rhumerus -16.9828 11.3615 -77.9455
rradius 33.1213
rwrist -1.33412
rhand -16.2513 -7.71535
rfingers 7.12502
rthumb 9.95774 -37.4598
lclavicle -4.39314e-014 4.37326e-014
lhumerus -18.3735 -19.7625 86.605
lradius 19.418
lwrist 6.62868
lhand -6.79307 -10.0691
lfingers 7.12502
lthumb 19.0698 19.016
rfemur -9.08003 -9.45046 24.1419
rtibia 38.5557
rfoot -29.4416 -18.9966
rtoes 0.599807
lfemur -20.7193 12.9462 -16.0138
ltibia 44.8013
lfoot -20.6204 12.5406
ltoes -11.3492
1385
root -3.01975 17.3343 -17.0043 170.265 -63.1976 -172.6
lowerback -0.65769 -0.579224 11.0354
upperback 6.1887 -1.64334 1.88949
thorax 6.7232 -0.375244 -4.28519
lowerneck -12.4748 3.68164 3.94276
upperneck 21.4543 4.51025 -2.75869
head 8.92662 2.00174 -1.10487
rclavicle -2.21645e-014 7.95139e-015
rhumerus -17.4779 11.2291 -78.005
rradius 33.2175
rwrist -1.31294
rhand -16.177 -7.73724
rfingers 7.12502
rthumb 10.0294 -37.4783
lclavicle -2.21645e-014 7.95139e-015
lhumerus -18.9197 -19.8684 86.1876
lradius 19.7273
lwrist 7.0003
lhand -6.85014 -10.106
lfingers 7.12502
lthumb 19.0149 18.9845
rfemur -9.01526 -9.89175 24.2561
rtibia 38.5044
rfoot -29.7741 -19.2213
rtoes 1.0039
lfemur -20.9901 13.3691 -16.2171
ltibia 44.8844
lfoot -21.0825 12.907
ltoes -11.2016
1386
root -3.02633 17.3256 -17.0038 169.826 -64.0421 -172.084
lowerback -0.710149 -0.462629 11.0897
upperback 6.11045 -1.47743 1.84043
thorax 6.69252 -0.288592 -4.35802
lowerneck -12.4309 3.84236 4.08692
upperneck 21.1157 4.72406 -2.78206
head 8.81496 2.12173 -1.11134
rclavicle 1.40143e-014 4.37326e-014
rhumerus -17.9758 11.0464 -78.0731
rradius 33.3019
rwrist -1.28235
rhand -16.0959 -7.75606
rfingers 7.12502
rthumb 10.1076 -37.4933
lclavicle 1.40143e-014 4.37326e-014
lhumerus -19.4064 -19.8596 85.7369
lradius 19.9698
lwrist 7.30475
lhand -6.95523 -10.135
lfingers 7.12502
lthumb 18.9139 18.9655
rfemur -8.95834 -10.309 24.371
rtibia 38.4644
rfoot -30.0988 -19.4533
rtoes 1.3771
lfemur -21.2477 13.7925 -16.4216
ltibia 44.957
lfoot -21.5673 13.291
ltoes -11.0782
1387
root -3.03342 17.3169 -17.0028 169.353 -64.8622 -171.541
lowerback -0.744741 -0.342666 11.1344
upperback 6.03715 -1.3053 1.79089
thorax 6.65849 -0.19979 -4.42522
lowerneck -12.3904 3.99945 4.21439
upperneck 20.7695 4.93282 -2.7946
head 8.70124 2.23888 -1.11234
rclavicle 2.50469e-014 -1.66979e-014
rhumerus -18.4744 10.7998 -78.1453
rradius 33.3683
rwrist -1.23503
rhand -16.0111 -7.77131
rfingers 7.12502
rthumb 10.1894 -37.5045
lclavicle 2.50469e-014 -1.66979e-014
lhumerus -19.861 -19.7986 85.263
lradius 20.1885
lwrist 7.59571
lhand -7.09781 -10.1551
lfingers 7.12502
lthumb 18.7768 18.9587
rfemur -8.90278 -10.6905 24.4899
rtibia 38.4379
rfoot -30.42 -19.7042
rtoes 1.74658
lfemur -21.4843 14.2358 -16.6222
ltibia 45.0166
lfoot -22.0718 13.6862
ltoes -10.9342
1388
root -3.04113 17.308 -17.0012 168.851 -65.6552 -170.979
lowerback -0.763431 -0.219694 11.1711
upperback 5.97044 -1.12765 1.73757
thorax 6.62385 -0.108719 -4.49143
lowerneck -12.3555 4.15648 4.33662
upperneck 20.4187 5.13981 -2.80038
head 8.58737 2.35515 -1.11073
rclavicle 5.83433e-014 7.15625e-015
rhumerus -18.9671 10.5064 -78.2232
rradius 33.4133
rwrist -1.187
rhand -15.9326 -7.79691
rfingers 7.12502
rthumb 10.2651 -37.5264
lclavicle 5.83433e-014 7.15625e-015
lhumerus -20.2596 -19.655 84.7655
lradius 20.3539
lwrist 7.85435
lhand -7.29251 -10.1532
lfingers 7.12502
lthumb 18.5895 18.9786
rfemur -8.84954 -11.0463 24.6063
rtibia 38.426
rfoot -30.7292 -19.9665
rtoes 2.07577
lfemur -21.7 14.7086 -16.8266
ltibia 45.0608
lfoot -22.5648 14.1289
ltoes -10.8947
1389
root -3.04948 17.2987 -16.9991 168.32 -66.4238 -170.397
lowerback -0.768108 -0.0946405 11.198
upperback 5.91131 -0.945891 1.67979
thorax 6.59051 -0.0159823 -4.55642
lowerneck -12.3267 4.31237 4.46089
upperneck 20.0646 5.34344 -2.806
head 8.4742 2.4696 -1.11011
rclavicle -2.08724e-014 4.05521e-014
rhumerus -19.4463 10.1686 -78.3058
rradius 33.4295
rwrist -1.14265
rhand -15.859 -7.83733
rfingers 7.12502
rthumb 10.3362 -37.5633
lclavicle -2.08724e-014 4.05521e-014
lhumerus -20.6189 -19.464 84.2438
lradius 20.4826
lwrist 8.10822
lhand -7.52788 -10.1752
lfingers 7.12502
lthumb 18.3631 18.978
rfemur -8.79762 -11.3756 24.7193
rtibia 38.4295
rfoot -31.0286 -20.2449
rtoes 2.3647
lfemur -21.8918 15.209 -17.0372
ltibia 45.0893
lfoot -23.0321 14.6299
ltoes -10.9639
1390
root -3.0586 17.2893 -16.9966 167.766 -67.1662 -169.803
lowerback -0.764024 0.0373308 11.2047
upperback 5.86088 -0.754572 1.62565
thorax 6.56354 0.0805407 -4.60566
lowerneck -12.2963 4.4613 4.56722
upperneck 19.6974 5.53936 -2.80772
head 8.35601 2.57925 -1.10662
rclavicle 2.39536e-014 -1.59028e-015
rhumerus -19.9092 9.78895 -78.3744
rradius 33.4088
rwrist -1.10177
rhand -15.7935 -7.88931
rfingers 7.12502
rthumb 10.3994 -37.6121
lclavicle 2.39536e-014 -1.59028e-015
lhumerus -20.9392 -19.2332 83.7211
lradius 20.5755
lwrist 8.36268
lhand -7.80414 -10.186
lfingers 7.12502
lthumb 18.0973 18.9921
rfemur -8.7446 -11.6778 24.8259
rtibia 38.4467
rfoot -31.322 -20.5333
rtoes 2.63374
lfemur -22.0568 15.7257 -17.2535
ltibia 45.1033
lfoot -23.4799 15.1858
ltoes -11.0643
1391
root -3.06854 17.2801 -16.9937 167.19 -67.8852 -169.196
lowerback -0.749735 0.173028 11.1966
upperback 5.81551 -0.55706 1.5702
thorax 6.53741 0.179396 -4.64754
lowerneck -12.2686 4.60102 4.67085
upperneck 19.3247 5.72141 -2.80736
head 8.23647 2.68197 -1.104
rclavicle -6.02318e-014 6.52014e-014
rhumerus -20.3557 9.37396 -78.4399
rradius 33.342
rwrist -1.05806
rhand -15.7525 -7.94946
rfingers 7.12502
rthumb 10.4389 -37.6703
lclavicle -6.02318e-014 6.52014e-014
lhumerus -21.2157 -18.8951 83.1724
lradius 20.6112
lwrist 8.53292
lhand -8.08503 -10.2444
lfingers 7.12502
lthumb 17.827 18.9585
rfemur -8.68876 -11.9559 24.9252
rtibia 38.4713
rfoot -31.6098 -20.8286
rtoes 2.88506
lfemur -22.1965 16.2483 -17.4749
ltibia 45.1058
lfoot -23.9046 15.7914
ltoes -11.1674
1392
root -3.07955 17.2711 -16.9903 166.587 -68.5756 -168.569
lowerback -0.729183 0.313968 11.1764
upperback 5.77248 -0.351556 1.51261
thorax 6.51167 0.281635 -4.68448
lowerneck -12.2294 4.73208 4.77899
upperneck 18.9376 5.88884 -2.80267
head 8.11015 2.77832 -1.10307
rclavicle 4.25399e-014 3.10104e-014
rhumerus -20.7881 8.92291 -78.5069
rradius 33.2206
rwrist -0.994271
rhand -15.7348 -8.0102
rfingers 7.12502
rthumb 10.456 -37.7302
lclavicle 4.25399e-014 3.10104e-014
lhumerus -21.453 -18.4625 82.6013
lradius 20.5883
lwrist 8.631
lhand -8.37009 -10.3096
lfingers 7.12502
lthumb 17.5527 18.918
rfemur -8.62806 -12.2053 25.0219
rtibia 38.4969
rfoot -31.8913 -21.1289
rtoes 3.12174
lfemur -22.314 16.7966 -17.6952
ltibia 45.0988
lfoot -24.2931 16.4345
ltoes -11.2883
